<svg width="281" height="62" viewBox="0 0 281 62" fill="none" xmlns="http://www.w3.org/2000/svg">
<path d="M25.2676 13.4C28.4036 13.4 31.2836 14.152 33.9076 15.656C36.5636 17.128 38.6596 19.16 40.1956 21.752C41.7316 24.312 42.4996 27.16 42.4996 30.296C42.4996 33.432 41.7316 36.28 40.1956 38.84C38.6596 41.368 36.5636 43.368 33.9076 44.84C31.2836 46.28 28.4036 47 25.2676 47H11.9236V13.4H25.2676ZM25.2676 41.048C27.2836 41.048 29.1236 40.584 30.7876 39.656C32.4516 38.696 33.7636 37.384 34.7236 35.72C35.7156 34.056 36.2116 32.232 36.2116 30.248C36.2116 28.264 35.7156 26.44 34.7236 24.776C33.7636 23.08 32.4516 21.752 30.7876 20.792C29.1236 19.832 27.2836 19.352 25.2676 19.352H18.2116V41.048H25.2676ZM69.0001 47H63.0961V32.792C63.0961 31 62.5841 29.72 61.5601 28.952C60.5681 28.152 59.3841 27.752 58.0081 27.752C56.9201 27.752 55.9281 28.088 55.0321 28.76C54.1681 29.432 53.6081 30.504 53.3521 31.976V47H47.4001V13.4H53.3521V25.016C54.1521 24.248 55.0641 23.64 56.0881 23.192C57.1441 22.744 58.2641 22.52 59.4481 22.52C60.8561 22.52 62.2801 22.824 63.7201 23.432C65.1601 24.008 66.3921 25.048 67.4161 26.552C68.4721 28.056 69.0001 30.088 69.0001 32.648V47ZM89.0311 22.52L88.5991 28.136C88.4071 28.072 88.0711 28.04 87.5911 28.04C85.6071 28.04 83.9591 28.616 82.6471 29.768C81.3671 30.92 80.7271 32.488 80.7271 34.472V47H74.7751V23H80.7271V27.032C81.2711 25.752 82.1991 24.68 83.5111 23.816C84.8231 22.952 86.4071 22.52 88.2631 22.52H89.0311ZM108.739 23H114.691V47H108.739V44.984C107.875 45.784 106.915 46.424 105.859 46.904C104.803 47.384 103.683 47.624 102.499 47.624C101.091 47.624 99.6509 47.336 98.1789 46.76C96.7389 46.152 95.4909 45.08 94.4349 43.544C93.4109 42.008 92.8989 39.944 92.8989 37.352V23H98.8509V37.352C98.8509 39.144 99.3469 40.44 100.339 41.24C101.363 42.008 102.547 42.392 103.891 42.392C105.235 42.392 106.371 41.928 107.299 41C108.259 40.04 108.739 38.52 108.739 36.44V23ZM130.645 39.8L136.933 23H143.221L134.293 47H126.997L118.069 23H124.357L130.645 39.8ZM181.332 13.4V19.352H172.068V47H165.828V19.352H156.612V13.4H181.332ZM201.103 23H207.343L198.943 47.048C197.695 50.344 195.967 52.808 193.759 54.44C191.583 56.104 189.007 56.824 186.031 56.6V50.84C186.223 50.872 186.511 50.888 186.895 50.888C189.455 50.888 191.455 49.336 192.895 46.232L182.335 23H188.719L195.775 38.264L201.103 23ZM229.529 23H235.481V47H229.529V44.648C228.409 45.608 227.177 46.36 225.833 46.904C224.521 47.416 223.129 47.672 221.657 47.672C219.225 47.672 217.097 47.128 215.273 46.04C213.449 44.952 212.041 43.448 211.049 41.528C210.089 39.608 209.609 37.448 209.609 35.048C209.609 32.648 210.089 30.488 211.049 28.568C212.041 26.648 213.449 25.144 215.273 24.056C217.097 22.936 219.225 22.376 221.657 22.376C223.129 22.376 224.521 22.648 225.833 23.192C227.177 23.704 228.409 24.44 229.529 25.4V23ZM222.425 41.96C223.737 41.96 224.921 41.672 225.977 41.096C227.065 40.488 227.913 39.656 228.521 38.6C229.161 37.544 229.481 36.344 229.481 35C229.481 32.984 228.793 31.336 227.417 30.056C226.073 28.776 224.409 28.136 222.425 28.136C220.409 28.136 218.745 28.792 217.433 30.104C216.153 31.384 215.513 33.032 215.513 35.048C215.513 37.064 216.153 38.728 217.433 40.04C218.745 41.32 220.409 41.96 222.425 41.96ZM259.53 23H265.482V45.8C265.482 48.072 264.906 50.072 263.754 51.8C262.634 53.528 261.066 54.856 259.05 55.784C257.034 56.744 254.778 57.224 252.282 57.224C249.498 57.224 246.97 56.68 244.698 55.592C242.426 54.536 240.826 53.144 239.898 51.416L244.986 48.488C245.466 49.416 246.362 50.184 247.674 50.792C248.986 51.432 250.57 51.752 252.426 51.752C254.474 51.752 256.17 51.192 257.514 50.072C258.858 48.984 259.53 47.56 259.53 45.8V44.696C258.442 45.656 257.226 46.392 255.882 46.904C254.538 47.416 253.146 47.672 251.706 47.672C249.274 47.672 247.146 47.128 245.322 46.04C243.498 44.952 242.09 43.448 241.098 41.528C240.138 39.608 239.658 37.448 239.658 35.048C239.658 32.648 240.138 30.488 241.098 28.568C242.09 26.648 243.498 25.144 245.322 24.056C247.146 22.936 249.274 22.376 251.706 22.376C253.146 22.376 254.522 22.648 255.834 23.192C257.178 23.704 258.41 24.424 259.53 25.352V23ZM252.474 41.96C253.786 41.96 254.97 41.672 256.026 41.096C257.114 40.488 257.962 39.656 258.57 38.6C259.21 37.544 259.53 36.344 259.53 35C259.53 32.984 258.842 31.336 257.466 30.056C256.122 28.776 254.458 28.136 252.474 28.136C250.458 28.136 248.794 28.792 247.482 30.104C246.202 31.384 245.562 33.032 245.562 35.048C245.562 37.064 246.202 38.728 247.482 40.04C248.794 41.32 250.458 41.96 252.474 41.96ZM274.675 19.016C273.555 19.016 272.675 18.712 272.035 18.104C271.395 17.496 271.075 16.664 271.075 15.608C271.075 14.52 271.395 13.672 272.035 13.064C272.675 12.456 273.555 12.152 274.675 12.152C275.795 12.152 276.675 12.456 277.315 13.064C277.955 13.672 278.275 14.52 278.275 15.608C278.275 16.632 277.939 17.464 277.267 18.104C276.627 18.712 275.763 19.016 274.675 19.016ZM271.651 47V23H277.603V47H271.651Z" fill="#4200FF" fill-opacity="0.69"/>
<path d="M21.2676 13.4C24.4036 13.4 27.2836 14.152 29.9076 15.656C32.5636 17.128 34.6596 19.16 36.1956 21.752C37.7316 24.312 38.4996 27.16 38.4996 30.296C38.4996 33.432 37.7316 36.28 36.1956 38.84C34.6596 41.368 32.5636 43.368 29.9076 44.84C27.2836 46.28 24.4036 47 21.2676 47H7.92363V13.4H21.2676ZM21.2676 41.048C23.2836 41.048 25.1236 40.584 26.7876 39.656C28.4516 38.696 29.7636 37.384 30.7236 35.72C31.7156 34.056 32.2116 32.232 32.2116 30.248C32.2116 28.264 31.7156 26.44 30.7236 24.776C29.7636 23.08 28.4516 21.752 26.7876 20.792C25.1236 19.832 23.2836 19.352 21.2676 19.352H14.2116V41.048H21.2676ZM65.0001 47H59.0961V32.792C59.0961 31 58.5841 29.72 57.5601 28.952C56.5681 28.152 55.3841 27.752 54.0081 27.752C52.9201 27.752 51.9281 28.088 51.0321 28.76C50.1681 29.432 49.6081 30.504 49.3521 31.976V47H43.4001V13.4H49.3521V25.016C50.1521 24.248 51.0641 23.64 52.0881 23.192C53.1441 22.744 54.2641 22.52 55.4481 22.52C56.8561 22.52 58.2801 22.824 59.7201 23.432C61.1601 24.008 62.3921 25.048 63.4161 26.552C64.4721 28.056 65.0001 30.088 65.0001 32.648V47ZM85.0311 22.52L84.5991 28.136C84.4071 28.072 84.0711 28.04 83.5911 28.04C81.6071 28.04 79.9591 28.616 78.6471 29.768C77.3671 30.92 76.7271 32.488 76.7271 34.472V47H70.7751V23H76.7271V27.032C77.2711 25.752 78.1991 24.68 79.5111 23.816C80.8231 22.952 82.4071 22.52 84.2631 22.52H85.0311ZM104.739 23H110.691V47H104.739V44.984C103.875 45.784 102.915 46.424 101.859 46.904C100.803 47.384 99.6829 47.624 98.4989 47.624C97.0909 47.624 95.6509 47.336 94.1789 46.76C92.7389 46.152 91.4909 45.08 90.4349 43.544C89.4109 42.008 88.8989 39.944 88.8989 37.352V23H94.8509V37.352C94.8509 39.144 95.3469 40.44 96.3389 41.24C97.3629 42.008 98.5469 42.392 99.8909 42.392C101.235 42.392 102.371 41.928 103.299 41C104.259 40.04 104.739 38.52 104.739 36.44V23ZM126.645 39.8L132.933 23H139.221L130.293 47H122.997L114.069 23H120.357L126.645 39.8ZM177.332 13.4V19.352H168.068V47H161.828V19.352H152.612V13.4H177.332ZM197.103 23H203.343L194.943 47.048C193.695 50.344 191.967 52.808 189.759 54.44C187.583 56.104 185.007 56.824 182.031 56.6V50.84C182.223 50.872 182.511 50.888 182.895 50.888C185.455 50.888 187.455 49.336 188.895 46.232L178.335 23H184.719L191.775 38.264L197.103 23ZM225.529 23H231.481V47H225.529V44.648C224.409 45.608 223.177 46.36 221.833 46.904C220.521 47.416 219.129 47.672 217.657 47.672C215.225 47.672 213.097 47.128 211.273 46.04C209.449 44.952 208.041 43.448 207.049 41.528C206.089 39.608 205.609 37.448 205.609 35.048C205.609 32.648 206.089 30.488 207.049 28.568C208.041 26.648 209.449 25.144 211.273 24.056C213.097 22.936 215.225 22.376 217.657 22.376C219.129 22.376 220.521 22.648 221.833 23.192C223.177 23.704 224.409 24.44 225.529 25.4V23ZM218.425 41.96C219.737 41.96 220.921 41.672 221.977 41.096C223.065 40.488 223.913 39.656 224.521 38.6C225.161 37.544 225.481 36.344 225.481 35C225.481 32.984 224.793 31.336 223.417 30.056C222.073 28.776 220.409 28.136 218.425 28.136C216.409 28.136 214.745 28.792 213.433 30.104C212.153 31.384 211.513 33.032 211.513 35.048C211.513 37.064 212.153 38.728 213.433 40.04C214.745 41.32 216.409 41.96 218.425 41.96ZM255.53 23H261.482V45.8C261.482 48.072 260.906 50.072 259.754 51.8C258.634 53.528 257.066 54.856 255.05 55.784C253.034 56.744 250.778 57.224 248.282 57.224C245.498 57.224 242.97 56.68 240.698 55.592C238.426 54.536 236.826 53.144 235.898 51.416L240.986 48.488C241.466 49.416 242.362 50.184 243.674 50.792C244.986 51.432 246.57 51.752 248.426 51.752C250.474 51.752 252.17 51.192 253.514 50.072C254.858 48.984 255.53 47.56 255.53 45.8V44.696C254.442 45.656 253.226 46.392 251.882 46.904C250.538 47.416 249.146 47.672 247.706 47.672C245.274 47.672 243.146 47.128 241.322 46.04C239.498 44.952 238.09 43.448 237.098 41.528C236.138 39.608 235.658 37.448 235.658 35.048C235.658 32.648 236.138 30.488 237.098 28.568C238.09 26.648 239.498 25.144 241.322 24.056C243.146 22.936 245.274 22.376 247.706 22.376C249.146 22.376 250.522 22.648 251.834 23.192C253.178 23.704 254.41 24.424 255.53 25.352V23ZM248.474 41.96C249.786 41.96 250.97 41.672 252.026 41.096C253.114 40.488 253.962 39.656 254.57 38.6C255.21 37.544 255.53 36.344 255.53 35C255.53 32.984 254.842 31.336 253.466 30.056C252.122 28.776 250.458 28.136 248.474 28.136C246.458 28.136 244.794 28.792 243.482 30.104C242.202 31.384 241.562 33.032 241.562 35.048C241.562 37.064 242.202 38.728 243.482 40.04C244.794 41.32 246.458 41.96 248.474 41.96ZM270.675 19.016C269.555 19.016 268.675 18.712 268.035 18.104C267.395 17.496 267.075 16.664 267.075 15.608C267.075 14.52 267.395 13.672 268.035 13.064C268.675 12.456 269.555 12.152 270.675 12.152C271.795 12.152 272.675 12.456 273.315 13.064C273.955 13.672 274.275 14.52 274.275 15.608C274.275 16.632 273.939 17.464 273.267 18.104C272.627 18.712 271.763 19.016 270.675 19.016ZM267.651 47V23H273.603V47H267.651Z" fill="#4200FF"/>
<path d="M4.51562 51.8H276.483V54.2H4.51562V51.8Z" fill="#4200FF"/>
</svg>
